HIERARCHY
ROOT Hips
{
	OFFSET 0.000000 0.000000 0.000000
	CHANNELS 6 Xposition Yposition Zposition Zrotation Yrotation Xrotation 
	JOINT LHipJoint
	{
		OFFSET 0.000000 0.000000 0.000000
		CHANNELS 3 Zrotation Yrotation Xrotation
		JOINT LeftUpLeg
		{
			OFFSET 1.363060 -1.794630 0.839290
			CHANNELS 3 Zrotation Yrotation Xrotation
			JOINT LeftLeg
			{
				OFFSET 2.448110 -6.726130 0.000000
				CHANNELS 3 Zrotation Yrotation Xrotation
				JOINT LeftFoot
				{
					OFFSET 2.562200 -7.039590 0.000000
					CHANNELS 3 Zrotation Yrotation Xrotation
					JOINT LeftToeBase
					{
						OFFSET 0.157640 -0.433110 2.322550
						CHANNELS 3 Zrotation Yrotation Xrotation
						End Site
						{
							OFFSET 0.000000 0.000000 0.000000
						}
					}
				}
			}
		}
	}
	JOINT RHipJoint
	{
		OFFSET 0.000000 0.000000 0.000000
		CHANNELS 3 Zrotation Yrotation Xrotation
		JOINT RightUpLeg
		{
			OFFSET -1.305520 -1.794630 0.839290
			CHANNELS 3 Zrotation Yrotation Xrotation
			JOINT RightLeg
			{
				OFFSET -2.542530 -6.985550 0.000000
				CHANNELS 3 Zrotation Yrotation Xrotation
				JOINT RightFoot
				{
					OFFSET -2.568260 -7.056230 0.000000
					CHANNELS 3 Zrotation Yrotation Xrotation
					JOINT RightToeBase
					{
						OFFSET -0.164730 -0.452590 2.363150
						CHANNELS 3 Zrotation Yrotation Xrotation
						End Site
						{
							OFFSET 0.000000 0.000000 0.000000
						}
					}
				}
			}
		}
	}
	JOINT LowerBack
	{
		OFFSET 0.000000 0.000000 0.000000
		CHANNELS 3 Zrotation Yrotation Xrotation
		JOINT Spine
		{
			OFFSET 0.028270 2.035590 -0.193380
			CHANNELS 3 Zrotation Yrotation Xrotation
			JOINT Spine1
			{
				OFFSET 0.056720 2.048850 -0.042750
				CHANNELS 3 Zrotation Yrotation Xrotation
				JOINT Neck
				{
					OFFSET 0.000000 0.000000 0.000000
					CHANNELS 3 Zrotation Yrotation Xrotation
					JOINT Neck1
					{
						OFFSET -0.054170 1.746240 0.172020
						CHANNELS 3 Zrotation Yrotation Xrotation
						JOINT Head
						{
							OFFSET 0.104070 1.761360 -0.123970
							CHANNELS 3 Zrotation Yrotation Xrotation
							End Site
							{
								OFFSET 0.000000 0.000000 0.000000
							}
						}
					}
				}
				JOINT LeftShoulder
				{
					OFFSET 0.000000 0.000000 0.000000
					CHANNELS 3 Zrotation Yrotation Xrotation
					JOINT LeftArm
					{
						OFFSET 3.362410 1.200890 -0.311210
						CHANNELS 3 Zrotation Yrotation Xrotation
						JOINT LeftForeArm
						{
							OFFSET 4.983000 -0.000000 -0.000000
							CHANNELS 3 Zrotation Yrotation Xrotation
							JOINT LeftHand
							{
								OFFSET 3.483560 -0.000000 -0.000000
								CHANNELS 3 Zrotation Yrotation Xrotation
								JOINT LeftFingerBase
								{
									OFFSET 0.000000 0.000000 0.000000
									CHANNELS 3 Zrotation Yrotation Xrotation
									JOINT LeftHandIndex1
									{
										OFFSET 0.715260 -0.000000 -0.000000
										CHANNELS 3 Zrotation Yrotation Xrotation
										End Site
										{
											OFFSET 0.000000 0.000000 0.000000
										}
									}
								}
								JOINT LThumb
								{
									OFFSET 0.000000 0.000000 0.000000
									CHANNELS 3 Zrotation Yrotation Xrotation
									End Site
									{
										OFFSET 0.000000 0.000000 0.000000
									}
								}
							}
						}
					}
				}
				JOINT RightShoulder
				{
					OFFSET 0.000000 0.000000 0.000000
					CHANNELS 3 Zrotation Yrotation Xrotation
					JOINT RightArm
					{
						OFFSET -3.136600 1.374050 -0.404650
						CHANNELS 3 Zrotation Yrotation Xrotation
						JOINT RightForeArm
						{
							OFFSET -5.241900 -0.000000 -0.000000
							CHANNELS 3 Zrotation Yrotation Xrotation
							JOINT RightHand
							{
								OFFSET -3.444170 -0.000000 -0.000000
								CHANNELS 3 Zrotation Yrotation Xrotation
								JOINT RightFingerBase
								{
									OFFSET 0.000000 0.000000 0.000000
									CHANNELS 3 Zrotation Yrotation Xrotation
									JOINT RightHandIndex1
									{
										OFFSET -0.622530 -0.000000 -0.000000
										CHANNELS 3 Zrotation Yrotation Xrotation
										End Site
										{
											OFFSET 0.000000 0.000000 0.000000
										}
									}
								}
								JOINT RThumb
								{
									OFFSET 0.000000 0.000000 0.000000
									CHANNELS 3 Zrotation Yrotation Xrotation
									End Site
									{
										OFFSET 0.000000 0.000000 0.000000
									}
								}
							}
						}
					}
				}
			}
		}
	}
}
MOTION
Frames: 4
Frame Time: 0.008333
10.022016 14.889167 -1.619403 41.060181 -88.614592 -17.765888 5.411096 -3.690299 -7.247460 -3.751987 11.767329 -76.162699 20.097080 20.023577 88.021531 5.238624 -22.506919 14.517398 0.955800 -6.225600 -17.440500 -5.834886 1.740416 -4.099527 22.745125 -24.236369 -89.173056 -24.365105 -19.232408 104.102019 -3.493410 12.216194 31.258401 -0.692300 5.319100 -14.821000 2.043598 -4.249324 63.866693 -0.324207 -7.638519 -0.847704 -1.323636 -4.231974 -6.415485 -8.274751 -11.637428 2.654741 13.333369 -15.087145 -3.163902 8.272700 -7.207900 -0.377900 2.049763 -3.821912 2.320361 -67.449158 -6.241336 -2.661365 126.036380 -53.989331 -99.621056 -0.679135 -1.804455 -14.481300 33.849315 7.959818 6.740100 -7.125000 0.000000 0.000000 7.171800 41.683500 -0.590100 -5.367127 4.622358 0.350715 91.304416 -5.650903 31.276225 -33.772245 41.403026 -18.554578 1.971463 1.275927 -12.359729 -21.468722 -0.113473 0.427400 7.125000 0.000000 0.000000 2.306600 -31.039500 0.787500 
9.903994 14.880004 -2.089171 5.723677 -87.816796 17.224096 4.988090 -3.907878 -7.213134 -5.389595 11.960732 -78.020341 20.288517 20.069050 89.246253 5.115878 -27.136303 15.936503 0.942900 -6.184400 -17.320500 -6.275181 1.523078 -4.007741 22.706986 -24.591862 -88.423198 -24.926180 -19.047168 104.818971 -2.920673 7.520122 30.632994 -0.075800 1.776100 -4.887200 2.981788 -4.702477 64.083332 -0.231362 -7.574099 -0.880820 -1.214416 -4.311352 -6.557084 -8.286182 -11.716768 2.518007 13.545482 -15.183010 -3.108364 8.409700 -7.250800 -0.211500 1.956104 -3.974797 2.318093 -66.491756 -6.178606 -0.050254 127.952201 -52.815933 -100.761093 -0.651346 -1.676547 -12.487740 32.940184 7.942069 6.414400 -7.125000 0.000000 0.000000 6.244500 41.434800 -0.551500 -5.168899 4.626455 0.324836 91.045198 -4.419072 30.888224 -31.448162 39.733799 -16.683368 2.007235 1.309601 -12.434370 -21.310854 -0.454484 0.581500 7.125000 0.000000 0.000000 2.410300 -31.429300 0.800400 
9.782550 14.902747 -2.572629 -11.058595 -86.739243 33.335933 4.810244 -4.106181 -7.223973 -6.938074 12.177716 -78.534999 20.000735 20.089076 89.183995 4.562802 -31.598657 18.966857 0.606400 -4.984300 -13.863900 -6.300426 1.427751 -3.879917 21.729488 -24.871620 -86.741730 -25.317093 -18.948372 104.827105 -2.216759 3.239416 29.670600 -0.106100 -2.100300 5.783000 3.649986 -4.860167 64.807710 -0.118908 -7.044037 -0.931657 -0.798553 -4.162868 -6.772568 -8.157885 -11.946558 2.557096 13.662034 -15.521245 -3.269458 8.407200 -7.421000 -0.248600 1.999849 -4.106215 2.342061 -66.450396 -6.747072 3.102309 129.350497 -51.732323 -101.559595 -0.611967 -1.479187 -8.390475 31.256563 6.795368 5.188900 -7.125000 0.000000 0.000000 4.576100 39.739600 -0.594800 -4.916395 4.674766 0.318329 90.586913 -3.194188 30.134519 -29.309895 38.052823 -15.025660 2.086377 1.360123 -12.611925 -21.498869 -0.805728 0.753700 7.125000 0.000000 0.000000 2.200100 -31.840100 0.708800 
9.673802 14.905065 -3.027603 -17.419552 -85.877816 39.453349 4.634971 -4.280087 -7.237907 -8.438418 12.046838 -78.852161 19.312303 20.151542 88.200176 3.785088 -34.734653 23.518196 0.459700 -4.349300 -12.061400 -6.312493 1.418585 -3.822649 20.235287 -24.812283 -85.412069 -25.400548 -18.932768 104.184029 -1.649949 0.613976 28.388193 -0.317200 -3.620300 10.010900 3.988652 -5.221703 64.934721 0.013081 -7.005548 -0.985479 0.036978 -4.206234 -6.947707 -9.057042 -11.830824 2.480689 13.830583 -15.417545 -3.360387 8.676000 -7.338100 -0.196000 1.976729 -4.208051 2.355279 -66.729800 -6.879772 5.042750 130.431271 -50.919011 -102.188131 -0.584059 -1.304616 -4.159558 30.309869 5.711486 4.257400 -7.125000 0.000000 0.000000 3.627700 38.243400 -0.604500 -4.661030 4.719433 0.334725 89.259003 -1.878341 30.134629 -27.145110 36.276376 -13.393951 2.162282 1.371588 -12.061279 -21.515705 -1.088434 0.888200 7.125000 0.000000 0.000000 2.142900 -32.165700 0.673600 
